# xmcd CD database file
#
# Track frame offsets:
#	150
#	18125
#	32665
#
# Disc length: 664 seconds
#
# Revision: 1
# Processed by: cddbd v1.5.1PL2 Copyright (c) Steve Scherf et al.
# Submitted via: CDex 1.51
#
DISCID=15029603
DTITLE=Snappers - 夕立ち
DYEAR=2000
DGENRE=Rock
TTITLE0=夕立ち
TTITLE1=太田川
TTITLE2=セブン
EXTD=YEAR: 2000
EXTT0=
EXTT1=
EXTT2=
PLAYORDER=
